<svg xmlns="http://www.w3.org/2000/svg" viewBox="0 0 250 250"><defs><style>.cls-1{fill:#1d2939;}.cls-2,.cls-3,.cls-4,.cls-5,.cls-6{fill:none;}.cls-2{stroke:#009fd0;}.cls-2,.cls-4,.cls-5,.cls-6{stroke-miterlimit:10;}.cls-4,.cls-5,.cls-6{stroke:#2bc2ee;}.cls-5{stroke-width:0.75px;}.cls-6{stroke-width:2px;}</style></defs><title>calidad</title><g id="Capa_2" data-name="Capa 2"><g id="Layer_1" data-name="Layer 1"><circle class="cls-1" cx="125" cy="125" r="125"/><path id="_Trazado_compuesto_" data-name="&lt;Trazado compuesto&gt;" class="cls-2" d="M126.71,35.52,121,49.5a2.83,2.83,0,0,1-2.41,1.75l-15.06,1.11L107.13,67a2.83,2.83,0,0,1-.92,2.83L94.67,79.62l11.53,9.75a2.83,2.83,0,0,1,.92,2.83l-3.6,14.67L118.59,108a2.83,2.83,0,0,1,2.41,1.75l5.71,14,12.84-8a2.83,2.83,0,0,1,3,0l12.84,8,5.71-14a2.83,2.83,0,0,1,2.41-1.75l15.06-1.11-3.6-14.67a2.83,2.83,0,0,1,.92-2.83l11.53-9.75-11.53-9.75A2.83,2.83,0,0,1,175,67l3.6-14.67-15.06-1.11a2.83,2.83,0,0,1-2.41-1.75l-5.71-14-12.84,8a2.83,2.83,0,0,1-3,0Zm-1.35-4.16L141,41.07l15.68-9.72,7,17.08,18.4,1.36L177.7,67.7l14.09,11.91L177.7,91.53l4.4,17.92-18.4,1.36-7,17.08L141,118.16l-15.68,9.72-7-17.08L100,109.44l4.4-17.92L90.29,79.62,104.38,67.7,100,49.79l18.4-1.36Z"/><circle id="_Trazado_" data-name="&lt;Trazado&gt;" class="cls-3" cx="141.04" cy="79.62" r="32.9"/><path id="_Trazado_compuesto_2" data-name="&lt;Trazado compuesto&gt;" class="cls-4" d="M141,49.54a30.08,30.08,0,1,0,30.08,30.08A30.08,30.08,0,0,0,141,49.54Zm0-2.83a32.9,32.9,0,1,1-32.9,32.9A32.9,32.9,0,0,1,141,46.71Z"/><path id="_Trazado_2" data-name="&lt;Trazado&gt;" class="cls-2" d="M101.76,114.92l12.84.54,9,17.3,18.24-8.25L154,131.2S129,218,128.74,218.64,108.35,170,108.35,170l-50.14,9.62Z"/><polygon id="_Trazado_3" data-name="&lt;Trazado&gt;" class="cls-5" points="121.08 133.8 108.14 166.63 65.3 175.15 103.71 118 113.7 118.73 121.08 133.8"/><circle class="cls-6" cx="125" cy="125" r="117.3"/></g></g></svg>