<svg xmlns="http://www.w3.org/2000/svg" viewBox="0 0 250 250"><defs><style>.cls-1{fill:#1d2939;}.cls-2,.cls-3,.cls-4,.cls-5{fill:none;stroke-miterlimit:10;}.cls-2,.cls-4,.cls-5{stroke:#2bc2ee;}.cls-2{stroke-width:2px;}.cls-3{stroke:#009fd0;}.cls-5{stroke-width:0.75px;}</style></defs><title>ideas</title><g id="Capa_2" data-name="Capa 2"><g id="Layer_1" data-name="Layer 1"><circle class="cls-1" cx="125" cy="125" r="125"/><circle class="cls-2" cx="125" cy="125" r="117.3"/><path id="_Trazado_" data-name="&lt;Trazado&gt;" class="cls-3" d="M117.5,208.27l27.63-6.87c1.51-.37,2.72-.17,2.7.47l-.22,8c0,.63-1.25,1.45-2.76,1.82l-27.63,6.87c-1.51.37-2.72.17-2.7-.47l.22-8C114.76,209.46,116,208.65,117.5,208.27Z"/><path id="_Trazado_2" data-name="&lt;Trazado&gt;" class="cls-3" d="M111.28,198.28l37.93-9.3c2.07-.51,3.69-.37,3.62.3l-.89,8.57c-.07.67-1.8,1.63-3.87,2.14l-37.93,9.3c-2.07.51-3.69.37-3.62-.3l.89-8.57C107.48,199.74,109.21,198.78,111.28,198.28Z"/><path id="_Trazado_3" data-name="&lt;Trazado&gt;" class="cls-3" d="M108.4,186.15l43.33-10.58c2.36-.58,4.24-.43,4.19.32l-.61,9.6c0,.76-2,1.84-4.37,2.41l-43.33,10.58c-2.36.58-4.24.43-4.19-.32l.61-9.6C104.08,187.81,106,186.73,108.4,186.15Z"/><path id="_Trazado_4" data-name="&lt;Trazado&gt;" class="cls-4" d="M125.08,31.22a59.13,59.13,0,0,1,59.13,59.13s3.77,25.58-28.72,59.13c-10.52,10.86-1.84,24.34-1.84,24.34l-47,11.49s-45-61.46-40.74-96.08a61.27,61.27,0,0,1,5.83-24.52,59.6,59.6,0,0,1,33-29.91,58.72,58.72,0,0,1,11.33-2.91c2-.3,4-.4,6-.6Z"/><path class="cls-5" d="M100.6,47.15c-13,5.33-23.58,20.05-26.33,36"/></g></g></svg>