<svg xmlns="http://www.w3.org/2000/svg" viewBox="0 0 244.3 244.3"><defs><style>.cls-1{fill:#1d2939;}.cls-2,.cls-3,.cls-4{fill:none;stroke-miterlimit:10;}.cls-2,.cls-4{stroke:#2bc2ee;}.cls-2{stroke-width:2px;}.cls-3{stroke:#009fd0;stroke-width:0.9px;}.cls-4{stroke-width:0.68px;}</style></defs><title>team</title><g id="Capa_2" data-name="Capa 2"><g id="Layer_1" data-name="Layer 1"><circle class="cls-1" cx="122.15" cy="122.15" r="122.15"/><circle class="cls-2" cx="122.15" cy="122.15" r="117.3"/><path id="_Trazado_compuesto_" data-name="&lt;Trazado compuesto&gt;" class="cls-3" d="M214.24,98.66a85,85,0,0,1-11.69,15.18,79.49,79.49,0,0,1-23.25,16.59l4.28,8.41,1.17,2.3-2.23,1.28-.5.28-1.39.75c-1.51.8-3.26,1.7-5.24,2.66-5.64,2.74-12,5.48-18.83,8-24.57,9.14-49.5,13.65-72.88,11a96.15,96.15,0,0,1-35.37-11,126.83,126.83,0,0,0,21,15.27c16.29,9.4,34,14.44,53.08,14,22.65-.49,46.57-8.66,71.71-25.68l1.18-.8,1.33.52,9.69,3.77c.25-.66.1-.27.42-1.17a111.35,111.35,0,0,0,3.12-10.82A185.84,185.84,0,0,0,214.24,98.66Zm2.15-10.14c3.88,48.84-8.56,76.16-8.56,76.16l-12.2-4.75C86.51,233.82,21.79,127.61,23.17,129.31c56.26,69.27,158,10.76,158,10.76l-5.56-10.94C205.9,116.36,216.39,88.52,216.39,88.52Z"/><path class="cls-4" d="M74.17,131.56H70v19.14a2.47,2.47,0,0,0,2.47,2.47h1.09A2.47,2.47,0,0,0,76,150.71V130A1.73,1.73,0,0,1,74.17,131.56Z"/><path class="cls-4" d="M63.23,131.56A1.73,1.73,0,0,1,61.36,130v20.7a2.47,2.47,0,0,0,2.47,2.47h1.09a2.47,2.47,0,0,0,2.47-2.47V131.56Z"/><rect id="_Trazado_" data-name="&lt;Trazado&gt;" class="cls-4" x="77.34" y="103.64" width="6.04" height="26.07" rx="2.47" ry="2.47"/><rect id="_Trazado_2" data-name="&lt;Trazado&gt;" class="cls-4" x="53.72" y="103.64" width="6.04" height="26.07" rx="2.47" ry="2.47"/><circle id="_Trazado_3" data-name="&lt;Trazado&gt;" class="cls-4" cx="68.22" cy="92.92" r="9.11"/><path class="cls-4" d="M112.87,130.81h-4.7V152.4a2.79,2.79,0,0,0,2.79,2.79h1.23A2.79,2.79,0,0,0,115,152.4V129.05A2,2,0,0,1,112.87,130.81Z"/><path class="cls-4" d="M100.54,130.81a2,2,0,0,1-2.11-1.76V152.4a2.79,2.79,0,0,0,2.79,2.79h1.23a2.79,2.79,0,0,0,2.79-2.79V130.81Z"/><path id="_Trazado_4" data-name="&lt;Trazado&gt;" class="cls-4" d="M63.23,103.64H74.17A1.73,1.73,0,0,1,76,105.2V130a1.73,1.73,0,0,1-1.87,1.56H63.23A1.73,1.73,0,0,1,61.36,130V105.2A1.73,1.73,0,0,1,63.23,103.64Z"/><path id="_Trazado_5" data-name="&lt;Trazado&gt;" class="cls-4" d="M100.54,99.32h12.33a2,2,0,0,1,2.11,1.76v28a2,2,0,0,1-2.11,1.76H100.54a2,2,0,0,1-2.11-1.76v-28A2,2,0,0,1,100.54,99.32Z"/><rect id="_Trazado_6" data-name="&lt;Trazado&gt;" class="cls-4" x="90.25" y="99.32" width="6.81" height="29.4" rx="2.79" ry="2.79"/><rect id="_Trazado_7" data-name="&lt;Trazado&gt;" class="cls-4" x="116.44" y="99.32" width="6.81" height="29.4" rx="2.79" ry="2.79"/><circle id="_Trazado_8" data-name="&lt;Trazado&gt;" class="cls-4" cx="106.16" cy="87.24" r="10.28"/><rect id="_Trazado_9" data-name="&lt;Trazado&gt;" class="cls-4" x="128.94" y="93.55" width="7.71" height="33.28" rx="3.16" ry="3.16"/><rect id="_Trazado_10" data-name="&lt;Trazado&gt;" class="cls-4" x="158.59" y="93.55" width="7.71" height="33.28" rx="3.16" ry="3.16"/><circle id="_Trazado_11" data-name="&lt;Trazado&gt;" class="cls-4" cx="146.95" cy="79.87" r="11.63"/><rect id="_Trazado_12" data-name="&lt;Trazado&gt;" class="cls-4" x="170.1" y="86.38" width="8.58" height="37.05" rx="3.52" ry="3.52"/><circle id="_Trazado_13" data-name="&lt;Trazado&gt;" class="cls-4" cx="190.16" cy="71.14" r="12.95"/><path class="cls-4" d="M211.7,97.22V89.9a3.52,3.52,0,0,0-3.52-3.52h-1.55a3.52,3.52,0,0,0-3.52,3.52V109A82.07,82.07,0,0,0,211.7,97.22Z"/><path class="cls-4" d="M182,125.89h0a75.69,75.69,0,0,0,13-9l.07-.06q1-.89,2-1.8l.25-.23q.91-.85,1.77-1.7l.24-.23q.94-.94,1.83-1.88V88.59a2.46,2.46,0,0,0-2.66-2.21H183.07a2.47,2.47,0,0,0-2.66,2.21v35.26A2.25,2.25,0,0,0,182,125.89Z"/><path class="cls-4" d="M154.55,129.19h-5.32v24.44c0,.05,0,.1,0,.15,2.7-.91,5.27-1.84,7.69-2.76V127.21A2.21,2.21,0,0,1,154.55,129.19Z"/><path class="cls-4" d="M140.58,129.19a2.21,2.21,0,0,1-2.38-2v26.43a3.15,3.15,0,0,0,2.07,3q2.73-.78,5.33-1.61a3.13,3.13,0,0,0,.31-1.34V129.19Z"/><path id="_Trazado_14" data-name="&lt;Trazado&gt;" class="cls-4" d="M140.58,93.55h14a2.21,2.21,0,0,1,2.38,2v31.67a2.21,2.21,0,0,1-2.38,2h-14a2.21,2.21,0,0,1-2.38-2V95.54A2.21,2.21,0,0,1,140.58,93.55Z"/></g></g></svg>